<svg width="161.39755859375px" height="176.1236328125px" xmlns="http://www.w3.org/2000/svg" viewBox="169.301220703125 -13.061816406250003 161.39755859375 176.1236328125" style="background-color: rgba(0, 0, 0, 0);" preserveAspectRatio="xMidYMid"><defs><filter id="editing-hole" x="-100%" y="-100%" width="300%" height="300%"><feFlood flood-color="none" result="black"></feFlood><feMorphology operator="dilate" radius="2" in="SourceGraphic" result="erode"></feMorphology><feGaussianBlur in="erode" stdDeviation="4" result="blur"></feGaussianBlur><feOffset in="blur" dx="2" dy="2" result="offset"></feOffset><feComposite operator="atop" in="offset" in2="black" result="merge"></feComposite><feComposite operator="in" in="merge" in2="SourceGraphic" result="inner-shadow"></feComposite></filter></defs><g filter="url(#editing-hole)"><g transform="translate(195.6500005722046, 110.74531173706055)"><path d="M11.60 0.20L11.60 0.20Q7.80 0.20 7.80-2L7.80-2L7.80-68L7.80-68Q7.80-70.20 11.60-70.20L11.60-70.20L13.10-70.20L13.10-70.20Q16.80-70.20 16.80-68L16.80-68L16.80-39.70L43.10-39.70L43.10-68L43.10-68Q43.10-70.20 46.90-70.20L46.90-70.20L48.30-70.20L48.30-70.20Q52.10-70.20 52.10-68L52.10-68L52.10-2L52.10-2Q52.10 0.20 48.30 0.20L48.30 0.20L46.90 0.20L46.90 0.20Q43.10 0.20 43.10-2L43.10-2L43.10-32.10L16.80-32.10L16.80-2L16.80-2Q16.80 0.20 13.10 0.20L13.10 0.20L11.60 0.20ZM80.10 0.50L80.10 0.50Q70.80 0.50 64.40-4.10L64.40-4.10L64.40-4.10Q63.80-4.50 63.55-4.95L63.55-4.95L63.55-4.95Q63.30-5.40 63.30-6.40L63.30-6.40L63.30-6.40Q63.30-8.20 63.95-10.15L63.95-10.15L63.95-10.15Q64.60-12.10 65.60-12.10L65.60-12.10L65.60-12.10Q66-12.10 66.20-11.90L66.20-11.90L66.20-11.90Q66.40-11.70 66.50-11.70L66.50-11.70L66.50-11.70Q72-7.40 80.40-7.40L80.40-7.40L80.40-7.40Q85.50-7.40 88.75-10.45L88.75-10.45L88.75-10.45Q92-13.50 92-18.70L92-18.70L92-18.70Q92-23.40 89.40-26.05L89.40-26.05L89.40-26.05Q86.80-28.70 81.70-31.30L81.70-31.30L81.70-31.30Q76-34.10 72.65-36.40L72.65-36.40L72.65-36.40Q69.30-38.70 67.05-42.35L67.05-42.35L67.05-42.35Q64.80-46 64.80-51.50L64.80-51.50L64.80-51.50Q64.80-60.60 70.55-65.85L70.55-65.85L70.55-65.85Q76.30-71.10 85.50-71.10L85.50-71.10L85.50-71.10Q92.60-71.10 97.70-68.10L97.70-68.10L97.70-68.10Q98.40-67.70 98.40-66.90L98.40-66.90L98.40-66.90Q98.40-65.60 97.45-63.20L97.45-63.20L97.45-63.20Q96.50-60.80 95.60-60.80L95.60-60.80L95.60-60.80Q95.30-60.80 94.30-61.30L94.30-61.30L94.30-61.30Q90.50-63.20 85-63.20L85-63.20L85-63.20Q80.20-63.20 76.90-60.45L76.90-60.45L76.90-60.45Q73.60-57.70 73.60-52.50L73.60-52.50L73.60-52.50Q73.60-48 76.35-45.25L76.35-45.25L76.35-45.25Q79.10-42.50 85.30-39.30L85.30-39.30L85.30-39.30Q90.40-36.70 93.55-34.45L93.55-34.45L93.55-34.45Q96.70-32.20 98.80-28.55L98.80-28.55L98.80-28.55Q100.90-24.90 100.90-19.40L100.90-19.40L100.90-19.40Q100.90-10 95.10-4.75L95.10-4.75L95.10-4.75Q89.30 0.50 80.10 0.50L80.10 0.50Z" fill="#000000"></path></g></g><style>text {
  font-size: 64px;
  font-family: Arial Black;
  dominant-baseline: central;
  text-anchor: middle;
}</style></svg>